<svg width="106" height="47" viewBox="0 0 106 47" fill="none" xmlns="http://www.w3.org/2000/svg">
<g clip-path="url(#clip0_45_244)">
<g clip-path="url(#clip1_45_244)">
<path d="M40.7776 3.69593V31.1667C40.7776 31.719 41.2253 32.1667 41.7776 32.1667H64.222C64.7743 32.1667 65.222 31.719 65.222 31.1667V3.69593C65.222 2.7684 64.0688 2.34063 63.4639 3.04379L53.7579 14.327C53.3589 14.7909 52.6407 14.7909 52.2417 14.327L42.5357 3.0438C41.9308 2.34063 40.7776 2.7684 40.7776 3.69593Z" fill="#2F3B34"/>
<path d="M40.7776 3.69593V31.1667C40.7776 31.719 41.2253 32.1667 41.7776 32.1667H64.222C64.7743 32.1667 65.222 31.719 65.222 31.1667V3.69593C65.222 2.7684 64.0688 2.34063 63.4639 3.04379L53.7579 14.327C53.3589 14.7909 52.6407 14.7909 52.2417 14.327L42.5357 3.0438C41.9308 2.34063 40.7776 2.7684 40.7776 3.69593Z" fill="#74C73A"/>
<path d="M40.7776 3.69593V31.1667C40.7776 31.719 41.2253 32.1667 41.7776 32.1667H64.222C64.7743 32.1667 65.222 31.719 65.222 31.1667V3.69593C65.222 2.7684 64.0688 2.34063 63.4639 3.04379L53.7579 14.327C53.3589 14.7909 52.6407 14.7909 52.2417 14.327L42.5357 3.0438C41.9308 2.34063 40.7776 2.7684 40.7776 3.69593Z" stroke="#74C73A"/>
<path d="M41.5746 20.7528L34.4199 24.1133C33.758 24.4243 33.6428 25.3173 34.2041 25.7861L37.4134 28.4658C37.9765 28.936 37.8585 29.8324 37.1928 30.1408L37.1166 30.1761C36.1444 30.6265 36.4655 32.0834 37.537 32.0834H41.9998C42.552 32.0834 42.9998 31.6357 42.9998 31.0834V21.6579C42.9998 20.9252 42.2378 20.4413 41.5746 20.7528Z" fill="#2F3B34"/>
<path d="M41.5746 20.7528L34.4199 24.1133C33.758 24.4243 33.6428 25.3173 34.2041 25.7861L37.4134 28.4658C37.9765 28.936 37.8585 29.8324 37.1928 30.1408L37.1166 30.1761C36.1444 30.6265 36.4655 32.0834 37.537 32.0834H41.9998C42.552 32.0834 42.9998 31.6357 42.9998 31.0834V21.6579C42.9998 20.9252 42.2378 20.4413 41.5746 20.7528Z" fill="#74C73A"/>
<path d="M41.5746 20.7528L34.4199 24.1133C33.758 24.4243 33.6428 25.3173 34.2041 25.7861L37.4134 28.4658C37.9765 28.936 37.8585 29.8324 37.1928 30.1408L37.1166 30.1761C36.1444 30.6265 36.4655 32.0834 37.537 32.0834H41.9998C42.552 32.0834 42.9998 31.6357 42.9998 31.0834V21.6579C42.9998 20.9252 42.2378 20.4413 41.5746 20.7528Z" stroke="#74C73A"/>
<path d="M64.4249 20.7528L71.5796 24.1133C72.2415 24.4243 72.3567 25.3173 71.7954 25.7861L68.5861 28.4658C68.023 28.936 68.1411 29.8324 68.8067 30.1408L68.8829 30.1761C69.8551 30.6265 69.534 32.0834 68.4625 32.0834H63.9998C63.4475 32.0834 62.9998 31.6357 62.9998 31.0834V21.6579C62.9998 20.9252 63.7617 20.4413 64.4249 20.7528Z" fill="#2F3B34"/>
<path d="M64.4249 20.7528L71.5796 24.1133C72.2415 24.4243 72.3567 25.3173 71.7954 25.7861L68.5861 28.4658C68.023 28.936 68.1411 29.8324 68.8067 30.1408L68.8829 30.1761C69.8551 30.6265 69.534 32.0834 68.4625 32.0834H63.9998C63.4475 32.0834 62.9998 31.6357 62.9998 31.0834V21.6579C62.9998 20.9252 63.7617 20.4413 64.4249 20.7528Z" fill="#74C73A"/>
<path d="M64.4249 20.7528L71.5796 24.1133C72.2415 24.4243 72.3567 25.3173 71.7954 25.7861L68.5861 28.4658C68.023 28.936 68.1411 29.8324 68.8067 30.1408L68.8829 30.1761C69.8551 30.6265 69.534 32.0834 68.4625 32.0834H63.9998C63.4475 32.0834 62.9998 31.6357 62.9998 31.0834V21.6579C62.9998 20.9252 63.7617 20.4413 64.4249 20.7528Z" stroke="#74C73A"/>
<path d="M41.2667 24.803L42.99 23.3191C43.306 23.047 43.6616 22.8247 44.0445 22.6598C45.08 22.214 46.2534 22.214 47.2889 22.6598C47.6719 22.8247 48.0275 23.047 48.3434 23.3191L50.0667 24.803L48.3434 26.287C48.0275 26.5591 47.6719 26.7814 47.2889 26.9463C46.2534 27.3921 45.08 27.3921 44.0445 26.9463C43.6616 26.7814 43.306 26.5591 42.99 26.287L41.2667 24.803Z" fill="white"/>
<path d="M55.9333 24.803L57.6567 23.3191C57.9726 23.047 58.3282 22.8247 58.7112 22.6598C59.7467 22.214 60.92 22.214 61.9555 22.6598C62.3385 22.8247 62.6941 23.047 63.01 23.3191L64.7333 24.803L63.01 26.287C62.6941 26.5591 62.3385 26.7814 61.9555 26.9463C60.92 27.3921 59.7467 27.3921 58.7112 26.9463C58.3282 26.7814 57.9726 26.5591 57.6567 26.287L55.9333 24.803Z" fill="white"/>
</g>
<path d="M8.69383 44.3649C7.28983 44.3649 6.08383 44.0949 5.07583 43.5549C4.06783 43.0149 3.29383 42.2529 2.75383 41.2689C2.22583 40.2849 1.96183 39.1329 1.96183 37.8129C1.96183 36.8289 2.11183 35.9349 2.41183 35.1309C2.72383 34.3269 3.16783 33.6369 3.74383 33.0609C4.33183 32.4849 5.03983 32.0469 5.86783 31.7469C6.70783 31.4349 7.64983 31.2789 8.69383 31.2789C9.24583 31.2789 9.81583 31.3449 10.4038 31.4769C11.0038 31.5969 11.5318 31.7829 11.9878 32.0349C12.3238 32.2149 12.5578 32.4429 12.6898 32.7189C12.8218 32.9949 12.8638 33.2769 12.8158 33.5649C12.7798 33.8529 12.6778 34.1109 12.5098 34.3389C12.3418 34.5669 12.1258 34.7229 11.8618 34.8069C11.5978 34.8789 11.3098 34.8369 10.9978 34.6809C10.6378 34.5129 10.2778 34.3869 9.91783 34.3029C9.56983 34.2069 9.20383 34.1589 8.81983 34.1589C8.07583 34.1589 7.45183 34.3029 6.94783 34.5909C6.45583 34.8669 6.08383 35.2749 5.83183 35.8149C5.57983 36.3549 5.45383 37.0209 5.45383 37.8129C5.45383 38.6049 5.57983 39.2769 5.83183 39.8289C6.08383 40.3689 6.45583 40.7829 6.94783 41.0709C7.45183 41.3469 8.07583 41.4849 8.81983 41.4849C9.13183 41.4849 9.46783 41.4489 9.82783 41.3769C10.1878 41.2929 10.5418 41.1669 10.8898 40.9989C11.2498 40.8429 11.5678 40.8009 11.8438 40.8729C12.1318 40.9449 12.3598 41.0889 12.5278 41.3049C12.7078 41.5209 12.8218 41.7729 12.8698 42.0609C12.9178 42.3369 12.8758 42.6129 12.7438 42.8889C12.6238 43.1649 12.4078 43.3869 12.0958 43.5549C11.6758 43.8069 11.1538 44.0049 10.5298 44.1489C9.91783 44.2929 9.30583 44.3649 8.69383 44.3649ZM16.2084 44.3289C15.7044 44.3289 15.3084 44.1909 15.0204 43.9149C14.7444 43.6389 14.6064 43.2369 14.6064 42.7089V37.0929C14.6064 36.5049 14.7564 36.0609 15.0564 35.7609C15.3684 35.4609 15.8124 35.3109 16.3884 35.3109H22.0044C22.5804 35.3109 23.0184 35.4609 23.3184 35.7609C23.6304 36.0609 23.7864 36.5049 23.7864 37.0929V42.7089C23.7864 43.2369 23.6424 43.6389 23.3544 43.9149C23.0784 44.1909 22.6884 44.3289 22.1844 44.3289C21.6684 44.3289 21.2724 44.1909 20.9964 43.9149C20.7204 43.6389 20.5824 43.2369 20.5824 42.7089V37.7589H17.8104V42.7089C17.8104 43.2369 17.6724 43.6389 17.3964 43.9149C17.1324 44.1909 16.7364 44.3289 16.2084 44.3289ZM29.0403 44.3649C28.3563 44.3649 27.7503 44.2389 27.2223 43.9869C26.7063 43.7349 26.2983 43.3929 25.9983 42.9609C25.7103 42.5169 25.5663 42.0129 25.5663 41.4489C25.5663 40.8009 25.7343 40.2909 26.0703 39.9189C26.4063 39.5469 26.9463 39.2829 27.6903 39.1269C28.4343 38.9589 29.4243 38.8749 30.6603 38.8749H31.6503V40.3869H30.6603C30.1923 40.3869 29.8023 40.4229 29.4903 40.4949C29.1903 40.5549 28.9683 40.6569 28.8243 40.8009C28.6803 40.9329 28.6083 41.1069 28.6083 41.3229C28.6083 41.5989 28.7043 41.8269 28.8963 42.0069C29.1003 42.1869 29.3883 42.2769 29.7603 42.2769C30.0603 42.2769 30.3243 42.2109 30.5523 42.0789C30.7923 41.9469 30.9843 41.7669 31.1283 41.5389C31.2723 41.2989 31.3443 41.0229 31.3443 40.7109V38.6229C31.3443 38.1909 31.2303 37.8849 31.0023 37.7049C30.7863 37.5249 30.4083 37.4349 29.8683 37.4349C29.5803 37.4349 29.2563 37.4709 28.8963 37.5429C28.5363 37.6029 28.1343 37.7169 27.6903 37.8849C27.3663 38.0049 27.0903 38.0229 26.8623 37.9389C26.6343 37.8549 26.4543 37.7109 26.3223 37.5069C26.2023 37.3029 26.1423 37.0809 26.1423 36.8409C26.1543 36.6009 26.2323 36.3729 26.3763 36.1569C26.5323 35.9409 26.7663 35.7729 27.0783 35.6529C27.6543 35.4369 28.1823 35.2929 28.6623 35.2209C29.1543 35.1489 29.6043 35.1129 30.0123 35.1129C30.9963 35.1129 31.8063 35.2569 32.4423 35.5449C33.0903 35.8209 33.5703 36.2529 33.8823 36.8409C34.2063 37.4169 34.3683 38.1609 34.3683 39.0729V42.7089C34.3683 43.2369 34.2423 43.6389 33.9903 43.9149C33.7383 44.1909 33.3723 44.3289 32.8923 44.3289C32.4003 44.3289 32.0223 44.1909 31.7583 43.9149C31.5063 43.6389 31.3803 43.2369 31.3803 42.7089V42.2409L31.4883 42.4929C31.4283 42.8769 31.2903 43.2069 31.0743 43.4829C30.8583 43.7589 30.5763 43.9749 30.2283 44.1309C29.8803 44.2869 29.4843 44.3649 29.0403 44.3649ZM41.0272 44.3649C40.0312 44.3649 39.1612 44.1789 38.4172 43.8069C37.6852 43.4349 37.1152 42.9009 36.7072 42.2049C36.2992 41.4969 36.0952 40.6689 36.0952 39.7209C36.0952 39.0009 36.2092 38.3589 36.4372 37.7949C36.6652 37.2189 36.9952 36.7329 37.4272 36.3369C37.8712 35.9409 38.3932 35.6409 38.9932 35.4369C39.6052 35.2209 40.2832 35.1129 41.0272 35.1129C41.3752 35.1129 41.7412 35.1489 42.1252 35.2209C42.5092 35.2809 42.9052 35.4009 43.3132 35.5809C43.6012 35.6889 43.7992 35.8569 43.9072 36.0849C44.0272 36.3009 44.0752 36.5349 44.0512 36.7869C44.0392 37.0389 43.9672 37.2669 43.8352 37.4709C43.7152 37.6749 43.5412 37.8129 43.3132 37.8849C43.0972 37.9569 42.8512 37.9269 42.5752 37.7949C42.3832 37.6989 42.1792 37.6329 41.9632 37.5969C41.7592 37.5489 41.5612 37.5249 41.3692 37.5249C41.0452 37.5249 40.7572 37.5729 40.5052 37.6689C40.2652 37.7649 40.0612 37.9089 39.8932 38.1009C39.7252 38.2809 39.5932 38.5089 39.4972 38.7849C39.4132 39.0609 39.3712 39.3729 39.3712 39.7209C39.3712 40.4169 39.5452 40.9629 39.8932 41.3589C40.2412 41.7549 40.7332 41.9529 41.3692 41.9529C41.5612 41.9529 41.7592 41.9349 41.9632 41.8989C42.1672 41.8509 42.3712 41.7789 42.5752 41.6829C42.8512 41.5509 43.0972 41.5269 43.3132 41.6109C43.5292 41.6829 43.7032 41.8209 43.8352 42.0249C43.9672 42.2289 44.0392 42.4569 44.0512 42.7089C44.0632 42.9489 44.0092 43.1829 43.8892 43.4109C43.7692 43.6269 43.5652 43.7889 43.2772 43.8969C42.8812 44.0769 42.4912 44.1969 42.1072 44.2569C41.7352 44.3289 41.3752 44.3649 41.0272 44.3649ZM47.0023 44.3289C46.6783 44.3289 46.4023 44.2689 46.1743 44.1489C45.9583 44.0289 45.7963 43.8429 45.6883 43.5909C45.5803 43.3389 45.5263 43.0209 45.5263 42.6369V36.6609C45.5263 36.1689 45.6523 35.7969 45.9043 35.5449C46.1563 35.2809 46.5163 35.1489 46.9843 35.1489C47.4403 35.1489 47.7883 35.2809 48.0283 35.5449C48.2803 35.7969 48.4063 36.1689 48.4063 36.6609V40.7649H47.9023L51.3943 36.1569C51.5623 35.9409 51.7783 35.7189 52.0423 35.4909C52.3183 35.2629 52.7023 35.1489 53.1943 35.1489C53.5303 35.1489 53.8063 35.2089 54.0223 35.3289C54.2383 35.4489 54.4003 35.6349 54.5083 35.8869C54.6163 36.1269 54.6703 36.4449 54.6703 36.8409V42.8169C54.6703 43.2969 54.5443 43.6689 54.2923 43.9329C54.0523 44.1969 53.6983 44.3289 53.2303 44.3289C52.7623 44.3289 52.4023 44.1969 52.1503 43.9329C51.9103 43.6689 51.7903 43.2969 51.7903 42.8169V38.6949H52.2943L48.8023 43.3209C48.6463 43.5369 48.4303 43.7589 48.1543 43.9869C47.8903 44.2149 47.5063 44.3289 47.0023 44.3289Z" fill="#2F3B34"/>
<path d="M8.69383 44.3649C7.28983 44.3649 6.08383 44.0949 5.07583 43.5549C4.06783 43.0149 3.29383 42.2529 2.75383 41.2689C2.22583 40.2849 1.96183 39.1329 1.96183 37.8129C1.96183 36.8289 2.11183 35.9349 2.41183 35.1309C2.72383 34.3269 3.16783 33.6369 3.74383 33.0609C4.33183 32.4849 5.03983 32.0469 5.86783 31.7469C6.70783 31.4349 7.64983 31.2789 8.69383 31.2789C9.24583 31.2789 9.81583 31.3449 10.4038 31.4769C11.0038 31.5969 11.5318 31.7829 11.9878 32.0349C12.3238 32.2149 12.5578 32.4429 12.6898 32.7189C12.8218 32.9949 12.8638 33.2769 12.8158 33.5649C12.7798 33.8529 12.6778 34.1109 12.5098 34.3389C12.3418 34.5669 12.1258 34.7229 11.8618 34.8069C11.5978 34.8789 11.3098 34.8369 10.9978 34.6809C10.6378 34.5129 10.2778 34.3869 9.91783 34.3029C9.56983 34.2069 9.20383 34.1589 8.81983 34.1589C8.07583 34.1589 7.45183 34.3029 6.94783 34.5909C6.45583 34.8669 6.08383 35.2749 5.83183 35.8149C5.57983 36.3549 5.45383 37.0209 5.45383 37.8129C5.45383 38.6049 5.57983 39.2769 5.83183 39.8289C6.08383 40.3689 6.45583 40.7829 6.94783 41.0709C7.45183 41.3469 8.07583 41.4849 8.81983 41.4849C9.13183 41.4849 9.46783 41.4489 9.82783 41.3769C10.1878 41.2929 10.5418 41.1669 10.8898 40.9989C11.2498 40.8429 11.5678 40.8009 11.8438 40.8729C12.1318 40.9449 12.3598 41.0889 12.5278 41.3049C12.7078 41.5209 12.8218 41.7729 12.8698 42.0609C12.9178 42.3369 12.8758 42.6129 12.7438 42.8889C12.6238 43.1649 12.4078 43.3869 12.0958 43.5549C11.6758 43.8069 11.1538 44.0049 10.5298 44.1489C9.91783 44.2929 9.30583 44.3649 8.69383 44.3649ZM16.2084 44.3289C15.7044 44.3289 15.3084 44.1909 15.0204 43.9149C14.7444 43.6389 14.6064 43.2369 14.6064 42.7089V37.0929C14.6064 36.5049 14.7564 36.0609 15.0564 35.7609C15.3684 35.4609 15.8124 35.3109 16.3884 35.3109H22.0044C22.5804 35.3109 23.0184 35.4609 23.3184 35.7609C23.6304 36.0609 23.7864 36.5049 23.7864 37.0929V42.7089C23.7864 43.2369 23.6424 43.6389 23.3544 43.9149C23.0784 44.1909 22.6884 44.3289 22.1844 44.3289C21.6684 44.3289 21.2724 44.1909 20.9964 43.9149C20.7204 43.6389 20.5824 43.2369 20.5824 42.7089V37.7589H17.8104V42.7089C17.8104 43.2369 17.6724 43.6389 17.3964 43.9149C17.1324 44.1909 16.7364 44.3289 16.2084 44.3289ZM29.0403 44.3649C28.3563 44.3649 27.7503 44.2389 27.2223 43.9869C26.7063 43.7349 26.2983 43.3929 25.9983 42.9609C25.7103 42.5169 25.5663 42.0129 25.5663 41.4489C25.5663 40.8009 25.7343 40.2909 26.0703 39.9189C26.4063 39.5469 26.9463 39.2829 27.6903 39.1269C28.4343 38.9589 29.4243 38.8749 30.6603 38.8749H31.6503V40.3869H30.6603C30.1923 40.3869 29.8023 40.4229 29.4903 40.4949C29.1903 40.5549 28.9683 40.6569 28.8243 40.8009C28.6803 40.9329 28.6083 41.1069 28.6083 41.3229C28.6083 41.5989 28.7043 41.8269 28.8963 42.0069C29.1003 42.1869 29.3883 42.2769 29.7603 42.2769C30.0603 42.2769 30.3243 42.2109 30.5523 42.0789C30.7923 41.9469 30.9843 41.7669 31.1283 41.5389C31.2723 41.2989 31.3443 41.0229 31.3443 40.7109V38.6229C31.3443 38.1909 31.2303 37.8849 31.0023 37.7049C30.7863 37.5249 30.4083 37.4349 29.8683 37.4349C29.5803 37.4349 29.2563 37.4709 28.8963 37.5429C28.5363 37.6029 28.1343 37.7169 27.6903 37.8849C27.3663 38.0049 27.0903 38.0229 26.8623 37.9389C26.6343 37.8549 26.4543 37.7109 26.3223 37.5069C26.2023 37.3029 26.1423 37.0809 26.1423 36.8409C26.1543 36.6009 26.2323 36.3729 26.3763 36.1569C26.5323 35.9409 26.7663 35.7729 27.0783 35.6529C27.6543 35.4369 28.1823 35.2929 28.6623 35.2209C29.1543 35.1489 29.6043 35.1129 30.0123 35.1129C30.9963 35.1129 31.8063 35.2569 32.4423 35.5449C33.0903 35.8209 33.5703 36.2529 33.8823 36.8409C34.2063 37.4169 34.3683 38.1609 34.3683 39.0729V42.7089C34.3683 43.2369 34.2423 43.6389 33.9903 43.9149C33.7383 44.1909 33.3723 44.3289 32.8923 44.3289C32.4003 44.3289 32.0223 44.1909 31.7583 43.9149C31.5063 43.6389 31.3803 43.2369 31.3803 42.7089V42.2409L31.4883 42.4929C31.4283 42.8769 31.2903 43.2069 31.0743 43.4829C30.8583 43.7589 30.5763 43.9749 30.2283 44.1309C29.8803 44.2869 29.4843 44.3649 29.0403 44.3649ZM41.0272 44.3649C40.0312 44.3649 39.1612 44.1789 38.4172 43.8069C37.6852 43.4349 37.1152 42.9009 36.7072 42.2049C36.2992 41.4969 36.0952 40.6689 36.0952 39.7209C36.0952 39.0009 36.2092 38.3589 36.4372 37.7949C36.6652 37.2189 36.9952 36.7329 37.4272 36.3369C37.8712 35.9409 38.3932 35.6409 38.9932 35.4369C39.6052 35.2209 40.2832 35.1129 41.0272 35.1129C41.3752 35.1129 41.7412 35.1489 42.1252 35.2209C42.5092 35.2809 42.9052 35.4009 43.3132 35.5809C43.6012 35.6889 43.7992 35.8569 43.9072 36.0849C44.0272 36.3009 44.0752 36.5349 44.0512 36.7869C44.0392 37.0389 43.9672 37.2669 43.8352 37.4709C43.7152 37.6749 43.5412 37.8129 43.3132 37.8849C43.0972 37.9569 42.8512 37.9269 42.5752 37.7949C42.3832 37.6989 42.1792 37.6329 41.9632 37.5969C41.7592 37.5489 41.5612 37.5249 41.3692 37.5249C41.0452 37.5249 40.7572 37.5729 40.5052 37.6689C40.2652 37.7649 40.0612 37.9089 39.8932 38.1009C39.7252 38.2809 39.5932 38.5089 39.4972 38.7849C39.4132 39.0609 39.3712 39.3729 39.3712 39.7209C39.3712 40.4169 39.5452 40.9629 39.8932 41.3589C40.2412 41.7549 40.7332 41.9529 41.3692 41.9529C41.5612 41.9529 41.7592 41.9349 41.9632 41.8989C42.1672 41.8509 42.3712 41.7789 42.5752 41.6829C42.8512 41.5509 43.0972 41.5269 43.3132 41.6109C43.5292 41.6829 43.7032 41.8209 43.8352 42.0249C43.9672 42.2289 44.0392 42.4569 44.0512 42.7089C44.0632 42.9489 44.0092 43.1829 43.8892 43.4109C43.7692 43.6269 43.5652 43.7889 43.2772 43.8969C42.8812 44.0769 42.4912 44.1969 42.1072 44.2569C41.7352 44.3289 41.3752 44.3649 41.0272 44.3649ZM47.0023 44.3289C46.6783 44.3289 46.4023 44.2689 46.1743 44.1489C45.9583 44.0289 45.7963 43.8429 45.6883 43.5909C45.5803 43.3389 45.5263 43.0209 45.5263 42.6369V36.6609C45.5263 36.1689 45.6523 35.7969 45.9043 35.5449C46.1563 35.2809 46.5163 35.1489 46.9843 35.1489C47.4403 35.1489 47.7883 35.2809 48.0283 35.5449C48.2803 35.7969 48.4063 36.1689 48.4063 36.6609V40.7649H47.9023L51.3943 36.1569C51.5623 35.9409 51.7783 35.7189 52.0423 35.4909C52.3183 35.2629 52.7023 35.1489 53.1943 35.1489C53.5303 35.1489 53.8063 35.2089 54.0223 35.3289C54.2383 35.4489 54.4003 35.6349 54.5083 35.8869C54.6163 36.1269 54.6703 36.4449 54.6703 36.8409V42.8169C54.6703 43.2969 54.5443 43.6689 54.2923 43.9329C54.0523 44.1969 53.6983 44.3289 53.2303 44.3289C52.7623 44.3289 52.4023 44.1969 52.1503 43.9329C51.9103 43.6689 51.7903 43.2969 51.7903 42.8169V38.6949H52.2943L48.8023 43.3209C48.6463 43.5369 48.4303 43.7589 48.1543 43.9869C47.8903 44.2149 47.5063 44.3289 47.0023 44.3289Z" fill="#74C73A"/>
<path d="M60.7171 44.3289C60.1051 44.3289 59.5051 44.2689 58.9171 44.1489C58.3291 44.0169 57.8191 43.8249 57.3871 43.5729C57.2071 43.4769 57.0811 43.3629 57.0091 43.2309C56.9371 43.0869 56.9071 42.9429 56.9191 42.7989C56.9311 42.6429 56.9791 42.5169 57.0631 42.4209C57.1591 42.3129 57.2791 42.2469 57.4231 42.2229C57.5791 42.1989 57.7591 42.2409 57.9631 42.3489C58.3471 42.5649 58.7791 42.7269 59.2591 42.8349C59.7391 42.9309 60.2131 42.9789 60.6811 42.9789C61.4971 42.9789 62.0791 42.8709 62.4271 42.6549C62.7871 42.4269 62.9671 42.0909 62.9671 41.6469C62.9671 41.2389 62.8231 40.9269 62.5351 40.7109C62.2471 40.4949 61.8391 40.3869 61.3111 40.3869H59.7271C59.4991 40.3869 59.3191 40.3269 59.1871 40.2069C59.0551 40.0869 58.9891 39.9249 58.9891 39.7209C58.9891 39.5049 59.0551 39.3429 59.1871 39.2349C59.3191 39.1149 59.4991 39.0549 59.7271 39.0549H61.1131C61.5811 39.0549 61.9531 38.9529 62.2291 38.7489C62.5171 38.5329 62.6611 38.2389 62.6611 37.8669C62.6611 37.4589 62.5051 37.1409 62.1931 36.9129C61.8811 36.6849 61.3531 36.5709 60.6091 36.5709C60.1651 36.5709 59.7331 36.6189 59.3131 36.7149C58.8931 36.8109 58.4911 36.9549 58.1071 37.1469C57.8551 37.2669 57.6451 37.2969 57.4771 37.2369C57.3091 37.1769 57.1831 37.0689 57.0991 36.9129C57.0271 36.7449 57.0211 36.5769 57.0811 36.4089C57.1411 36.2289 57.2791 36.0849 57.4951 35.9769C57.9871 35.7129 58.5151 35.5209 59.0791 35.4009C59.6431 35.2809 60.2431 35.2209 60.8791 35.2209C62.0191 35.2209 62.8771 35.4429 63.4531 35.8869C64.0411 36.3189 64.3351 36.9189 64.3351 37.6869C64.3351 38.2509 64.1431 38.7249 63.7591 39.1089C63.3871 39.4809 62.8891 39.7029 62.2651 39.7749V39.5409C62.9971 39.5769 63.5791 39.7929 64.0111 40.1889C64.4431 40.5729 64.6591 41.0829 64.6591 41.7189C64.6591 42.5109 64.3231 43.1469 63.6511 43.6269C62.9791 44.0949 62.0011 44.3289 60.7171 44.3289ZM67.7157 44.1669C67.4157 44.1669 67.1877 44.0889 67.0317 43.9329C66.8757 43.7649 66.7977 43.5369 66.7977 43.2489V36.3189C66.7977 36.0189 66.8757 35.7909 67.0317 35.6349C67.1877 35.4669 67.4157 35.3829 67.7157 35.3829H71.2797C71.9997 35.3829 72.5877 35.4729 73.0437 35.6529C73.5117 35.8329 73.8537 36.0969 74.0697 36.4449C74.2857 36.7809 74.3937 37.1949 74.3937 37.6869C74.3937 38.2509 74.2017 38.7249 73.8177 39.1089C73.4337 39.4809 72.9297 39.7029 72.3057 39.7749V39.5409C73.0617 39.5769 73.6437 39.7929 74.0517 40.1889C74.4717 40.5849 74.6817 41.0949 74.6817 41.7189C74.6817 42.4749 74.3997 43.0749 73.8357 43.5189C73.2717 43.9509 72.4677 44.1669 71.4237 44.1669H67.7157ZM68.5077 42.9969H71.3157C71.8557 42.9969 72.2697 42.8829 72.5577 42.6549C72.8577 42.4149 73.0077 42.0729 73.0077 41.6289C73.0077 41.1849 72.8577 40.8489 72.5577 40.6209C72.2697 40.3929 71.8557 40.2789 71.3157 40.2789H68.5077V42.9969ZM68.5077 39.1089H71.1537C71.6457 39.1089 72.0237 38.9949 72.2877 38.7669C72.5637 38.5389 72.7017 38.2269 72.7017 37.8309C72.7017 37.4229 72.5637 37.1109 72.2877 36.8949C72.0237 36.6789 71.6457 36.5709 71.1537 36.5709H68.5077V39.1089ZM80.9396 44.3289C79.9796 44.3289 79.1516 44.1489 78.4556 43.7889C77.7716 43.4169 77.2376 42.8949 76.8536 42.2229C76.4816 41.5389 76.2956 40.7289 76.2956 39.7929C76.2956 38.8809 76.4816 38.0829 76.8536 37.3989C77.2256 36.7149 77.7356 36.1809 78.3836 35.7969C79.0316 35.4129 79.7696 35.2209 80.5976 35.2209C81.2096 35.2209 81.7556 35.3229 82.2356 35.5269C82.7156 35.7189 83.1236 36.0069 83.4596 36.3909C83.8076 36.7629 84.0656 37.2189 84.2336 37.7589C84.4136 38.2989 84.5036 38.9049 84.5036 39.5769C84.5036 39.7809 84.4436 39.9369 84.3236 40.0449C84.2036 40.1409 84.0236 40.1889 83.7836 40.1889H77.7356V39.0729H83.2796L82.9736 39.3249C82.9736 38.7249 82.8836 38.2149 82.7036 37.7949C82.5356 37.3749 82.2776 37.0569 81.9296 36.8409C81.5936 36.6129 81.1736 36.4989 80.6696 36.4989C80.1056 36.4989 79.6256 36.6309 79.2296 36.8949C78.8456 37.1589 78.5516 37.5249 78.3476 37.9929C78.1436 38.4609 78.0416 39.0069 78.0416 39.6309V39.7389C78.0416 40.7949 78.2876 41.5929 78.7796 42.1329C79.2836 42.6609 80.0096 42.9249 80.9576 42.9249C81.3176 42.9249 81.6956 42.8769 82.0916 42.7809C82.4996 42.6849 82.8836 42.5229 83.2436 42.2949C83.4476 42.1749 83.6276 42.1209 83.7836 42.1329C83.9516 42.1449 84.0836 42.1989 84.1796 42.2949C84.2876 42.3909 84.3536 42.5109 84.3776 42.6549C84.4016 42.7989 84.3776 42.9489 84.3056 43.1049C84.2336 43.2489 84.1076 43.3809 83.9276 43.5009C83.5196 43.7769 83.0456 43.9869 82.5056 44.1309C81.9656 44.2629 81.4436 44.3289 80.9396 44.3289ZM87.579 47.5329C87.291 47.5329 87.069 47.4549 86.913 47.2989C86.757 47.1429 86.679 46.9149 86.679 46.6149V36.1749C86.679 35.8749 86.757 35.6469 86.913 35.4909C87.069 35.3349 87.285 35.2569 87.561 35.2569C87.849 35.2569 88.071 35.3349 88.227 35.4909C88.383 35.6469 88.461 35.8749 88.461 36.1749V37.7409L88.263 37.3629C88.455 36.7149 88.833 36.1989 89.397 35.8149C89.961 35.4189 90.627 35.2209 91.395 35.2209C92.175 35.2209 92.853 35.4069 93.429 35.7789C94.017 36.1509 94.467 36.6729 94.779 37.3449C95.103 38.0169 95.265 38.8269 95.265 39.7749C95.265 40.6989 95.103 41.5089 94.779 42.2049C94.467 42.8889 94.023 43.4169 93.447 43.7889C92.871 44.1489 92.187 44.3289 91.395 44.3289C90.639 44.3289 89.979 44.1369 89.415 43.7529C88.851 43.3689 88.473 42.8589 88.281 42.2229H88.497V46.6149C88.497 46.9149 88.413 47.1429 88.245 47.2989C88.089 47.4549 87.867 47.5329 87.579 47.5329ZM90.945 42.9249C91.449 42.9249 91.887 42.8049 92.259 42.5649C92.631 42.3249 92.919 41.9709 93.123 41.5029C93.327 41.0349 93.429 40.4589 93.429 39.7749C93.429 38.7429 93.201 37.9629 92.745 37.4349C92.301 36.9069 91.701 36.6429 90.945 36.6429C90.453 36.6429 90.015 36.7629 89.631 37.0029C89.259 37.2309 88.971 37.5789 88.767 38.0469C88.563 38.5149 88.461 39.0909 88.461 39.7749C88.461 40.7949 88.689 41.5749 89.145 42.1149C89.601 42.6549 90.201 42.9249 90.945 42.9249ZM103.789 44.2929C103.513 44.2929 103.303 44.2209 103.159 44.0769C103.015 43.9209 102.943 43.7049 102.943 43.4289V40.9629H101.809C101.389 40.9629 101.029 41.0709 100.729 41.2869C100.429 41.5029 100.183 41.7789 99.9911 42.1149L99.0371 43.7889C98.9051 44.0049 98.7491 44.1489 98.5691 44.2209C98.3891 44.3049 98.2091 44.3229 98.0291 44.2749C97.8491 44.2269 97.6931 44.1369 97.5611 44.0049C97.4291 43.8729 97.3451 43.7169 97.3091 43.5369C97.2851 43.3449 97.3331 43.1469 97.4531 42.9429L98.1731 41.7189C98.3651 41.3829 98.6291 41.1009 98.9651 40.8729C99.3131 40.6329 99.6611 40.5129 100.009 40.5129H100.297V40.6929C99.3011 40.6929 98.5271 40.4649 97.9751 40.0089C97.4231 39.5529 97.1471 38.9049 97.1471 38.0649C97.1471 37.5249 97.2671 37.0569 97.5071 36.6609C97.7591 36.2529 98.1311 35.9409 98.6231 35.7249C99.1151 35.4969 99.7211 35.3829 100.441 35.3829H103.699C103.999 35.3829 104.227 35.4669 104.383 35.6349C104.551 35.7909 104.635 36.0189 104.635 36.3189V43.4289C104.635 43.7049 104.557 43.9209 104.401 44.0769C104.245 44.2209 104.041 44.2929 103.789 44.2929ZM100.819 39.7209H102.943V36.6249H100.819C100.159 36.6249 99.6731 36.7629 99.3611 37.0389C99.0491 37.3029 98.8931 37.6749 98.8931 38.1549C98.8931 38.6469 99.0491 39.0309 99.3611 39.3069C99.6731 39.5829 100.159 39.7209 100.819 39.7209Z" fill="#2F3B34"/>
</g>
<defs>
<clipPath id="clip0_45_244">
<rect width="106" height="46.1669" fill="white"/>
</clipPath>
<clipPath id="clip1_45_244">
<rect width="44.0005" height="31.1669" fill="white" transform="translate(30.9998 1)"/>
</clipPath>
</defs>
</svg>
